<?xml version="1.0" encoding="UTF-8"?>
<svg id="Camada_2" data-name="Camada 2" xmlns="http://www.w3.org/2000/svg" viewBox="0 0 260 260">
  <defs>
    <style>
      .cls-1 {
        fill: #fab816;
      }

      .cls-1, .cls-2, .cls-3 {
        stroke-width: 0px;
      }

      .cls-2 {
        fill: #fff8f4;
      }

      .cls-3 {
        fill: #1d1d1b;
      }
    </style>
  </defs>
  <g id="Camada_3" data-name="Camada 3">
    <g>
      <path class="cls-2" d="M260,57.42v145.17c0,31.65-25.76,57.42-57.42,57.42H57.42c-31.65,0-57.42-25.76-57.42-57.42V57.42C0,25.75,25.76,0,57.42,0h145.17c31.66,0,57.42,25.75,57.42,57.42Z"/>
      <g>
        <rect class="cls-1" x="20" y="20" width="220" height="220" rx="43" ry="43"/>
        <path class="cls-3" d="M197,30c18.23,0,33,14.77,33,33v134c0,18.22-14.77,33-33,33H63c-18.23,0-33-14.78-33-33V63c0-18.23,14.77-33,33-33h134M197,10H63c-29.22,0-53,23.78-53,53v134c0,29.22,23.78,53,53,53h134c29.22,0,53-23.78,53-53V63c0-29.22-23.78-53-53-53h0Z"/>
      </g>
      <polygon class="cls-3" points="186.29 142.5 155 142.5 155 192.5 105 192.5 105 142.5 73.71 142.5 101.86 105 130 67.5 186.29 142.5"/>
    </g>
  </g>
</svg>