<?xml version="1.0" encoding="UTF-8"?>
<svg id="Camada_2" data-name="Camada 2" xmlns="http://www.w3.org/2000/svg" viewBox="0 0 120 145">
  <defs>
    <style>
      .cls-1 {
        fill: #fff8f4;
        stroke-width: 0px;
      }
    </style>
  </defs>
  <g id="Camada_3" data-name="Camada 3">
    <path class="cls-1" d="M37.5,10h70c1.38,0,2.5,1.12,2.5,2.5v95c0,2.76,2.24,5,5,5h0c2.76,0,5-2.24,5-5V12.5C120,5.6,114.4,0,107.5,0H37.5c-2.76,0-5,2.24-5,5h0c0,2.76,2.24,5,5,5Z"/>
    <path class="cls-1" d="M69.82,30c.67,0,1.3.26,1.77.73l17.68,17.68c.47.47.73,1.1.73,1.77v82.32c0,1.38-1.12,2.5-2.5,2.5H12.5c-1.38,0-2.5-1.12-2.5-2.5V32.5c0-1.38,1.12-2.5,2.5-2.5h57.32M69.82,20H12.5c-6.9,0-12.5,5.6-12.5,12.5v100c0,6.9,5.6,12.5,12.5,12.5h75c6.9,0,12.5-5.6,12.5-12.5V50.18c0-3.32-1.32-6.49-3.66-8.84l-17.68-17.68c-2.34-2.34-5.52-3.66-8.84-3.66h0Z"/>
    <path class="cls-1" d="M69.82,20l.14,23.96c.02,3.44,2.81,6.21,6.25,6.21h23.79s-30.18-30.18-30.18-30.18Z"/>
  </g>
</svg>