<?xml version="1.0" encoding="UTF-8"?>
<svg id="Camada_2" data-name="Camada 2" xmlns="http://www.w3.org/2000/svg" viewBox="0 0 600 487.5">
  <defs>
    <style>
      .cls-1 {
        fill: #171412;
        stroke-width: 0px;
      }
    </style>
  </defs>
  <g id="Camada_3" data-name="Camada 3">
    <path class="cls-1" d="M550,0H50C22.39,0,0,22.39,0,50v237.5c0,27.62,22.39,50,50,50h200v50h-62.5c-24.17,0-46.04,9.79-61.87,25.63-15.84,15.84-25.63,37.71-25.63,61.87,0,6.9,5.6,12.5,12.5,12.5h375c3.45,0,6.57-1.4,8.84-3.66,2.26-2.27,3.66-5.39,3.66-8.84,0-48.32-39.18-87.5-87.5-87.5h-62.5v-50h200c27.61,0,50-22.38,50-50V50c0-27.61-22.39-50-50-50ZM562.5,265.63c0,13.8-11.19,25-25,25H62.5c-13.81,0-25-11.2-25-25V59.38c0-13.81,11.19-25,25-25h475c13.81,0,25,11.19,25,25v206.25Z"/>
  </g>
</svg>