<?xml version="1.0" encoding="UTF-8"?>
<svg id="Camada_2" data-name="Camada 2" xmlns="http://www.w3.org/2000/svg" viewBox="0 0 150 149.5">
  <defs>
    <style>
      .cls-1 {
        fill: #fff8f4;
      }

      .cls-1, .cls-2 {
        stroke-width: 0px;
      }

      .cls-2 {
        fill: #1d1d1b;
      }
    </style>
  </defs>
  <g id="Camada_3" data-name="Camada 3">
    <g>
      <circle class="cls-1" cx="75" cy="75" r="74.5"/>
      <path class="cls-2" d="M150,79.05c-.27,2.32-.51,4.64-.82,6.95-1.37,10.21-4.86,19.67-10.32,28.37-6.1,9.72-13.88,17.85-23.61,24.03-5.09,3.23-10.51,5.77-16.22,7.69-3.16,1.06-5.35-.58-5.36-3.91-.03-6.54.01-13.09-.02-19.63-.02-3.99-.42-7.91-2.59-11.4-.64-1.02-1.44-1.93-2.19-2.93,2.93-.55,5.86-.94,8.71-1.66,7.65-1.94,14.5-5.33,19.16-12.01,3.42-4.91,4.99-10.55,5.68-16.42.54-4.57.69-9.15-.27-13.7-.97-4.58-2.95-8.67-6.01-12.2-.75-.87-.9-1.57-.53-2.7,2.01-6.08,1.17-12.04-1.09-17.87-.13-.33-.69-.65-1.09-.71-2.66-.4-5.17.35-7.5,1.46-3.78,1.79-7.44,3.84-11.18,5.7-.63.32-1.5.53-2.16.37-11.74-2.97-23.46-2.96-35.19,0-.69.17-1.66-.06-2.27-.45-4.76-3.04-9.79-5.44-15.27-6.88-.09-.02-.19-.06-.28-.08-3.44-.7-4.07-.31-5.05,3.02-1.58,5.37-1.87,10.73.02,16.11.15.42-.03,1.16-.33,1.51-6.18,7.02-7.65,15.36-6.87,24.34.47,5.45,1.73,10.67,4.17,15.59,3.37,6.79,9.07,10.94,15.97,13.38,4.33,1.53,8.93,2.33,13.48,3.47.04-.22.06-.05-.01.03-2.34,2.44-3.65,5.37-4.2,8.68-.07.42-.36,1.02-.69,1.14-5.21,1.96-10.45,2.99-15.6-.15-2.34-1.43-4.05-3.49-5.43-5.84-2.16-3.68-5.21-6.35-9.31-7.57-1.47-.44-3.15-.33-4.73-.23-1.07.06-1.42.87-.71,1.77.66.83,1.34,1.77,2.23,2.28,3.94,2.27,6.15,5.9,7.95,9.84,1.08,2.35,2,4.75,3.99,6.56,3.17,2.88,7.02,3.97,11.15,4.15,3.49.15,6.99.03,10.66.03,0-.05.07.32.07.69.05,3.95.11,7.91.13,11.86.03,3.87-2.3,5.47-5.97,4.2-19.04-6.61-33.01-19.13-42.33-36.82C1.12,95.78-1.1,81.47.49,66.53c1.66-15.64,7.85-29.33,18.17-41.07C29.45,13.19,42.89,5.03,58.94,1.76c23.33-4.74,44.63.02,63.28,15.01,14.14,11.37,22.89,26.15,26.42,43.97.52,2.62.72,5.31,1.07,7.97.07.52.19,1.03.28,1.55v8.79Z"/>
    </g>
  </g>
</svg>