<?xml version="1.0" encoding="UTF-8"?>
<svg id="Camada_2" data-name="Camada 2" xmlns="http://www.w3.org/2000/svg" viewBox="0 0 496.06 496.06">
  <defs>
    <style>
      .cls-1 {
        stroke: #1d1d1b;
        stroke-miterlimit: 10;
        stroke-width: 9px;
      }

      .cls-1, .cls-2 {
        fill: #1d1d1b;
      }

      .cls-2 {
        stroke-width: 0px;
      }
    </style>
  </defs>
  <g id="Camada_1-2" data-name="Camada 1">
    <g>
      <path class="cls-2" d="M482.42,222.93c-3.13-62.46-30.46-118.21-72.63-158.3C367.63,24.5,310.58,0,248.08,0,123.02,0,19.89,98.07,13.69,222.93L0,414.21c0,45.19,37.05,81.85,82.69,81.85s82.69-36.66,82.69-81.85c0,45.19,37.01,81.85,82.65,81.85s82.69-36.66,82.69-81.85c0,45.19,37.01,81.85,82.7,81.85s82.64-36.66,82.64-81.85l-13.64-191.28ZM163.7,248.03c-27.4,0-49.61-22.21-49.61-49.61s22.21-49.6,49.61-49.6,49.6,22.2,49.6,49.6-22.21,49.61-49.6,49.61ZM230.67,210.82c-1.2,0-2.37-.19-3.5-.53-11.27-3.38-11.27-20.36,0-23.74,1.13-.34,2.3-.53,3.5-.53,9.58,0,17.36,24.8,17.36,24.8h-17.36ZM268.89,210.29c-1.13.34-2.3.53-3.5.53-9.59,0-17.36-24.8-17.36-24.8h17.36c1.2,0,2.37.19,3.5.53,11.27,3.38,11.27,20.36,0,23.74ZM332.36,248.03c-27.4,0-49.61-22.21-49.61-49.61s22.21-49.6,49.61-49.6,49.6,22.2,49.6,49.6-22.2,49.61-49.6,49.61Z"/>
      <path class="cls-1" d="M268.89,210.29c-1.13.34-2.3.53-3.5.53-9.59,0-17.36-24.8-17.36-24.8h17.36c1.2,0,2.37.19,3.5.53,11.27,3.38,11.27,20.36,0,23.74Z"/>
      <path class="cls-1" d="M248.03,210.82h-17.36c-1.2,0-2.37-.19-3.5-.53-11.27-3.38-11.27-20.36,0-23.74,1.13-.34,2.3-.53,3.5-.53,9.58,0,17.36,24.8,17.36,24.8Z"/>
    </g>
  </g>
</svg>