<?xml version="1.0" encoding="UTF-8"?>
<svg id="Camada_2" data-name="Camada 2" xmlns="http://www.w3.org/2000/svg" viewBox="0 0 540 540">
  <defs>
    <style>
      .cls-1 {
        stroke-width: 6px;
      }

      .cls-1, .cls-2, .cls-3 {
        fill: none;
        stroke: #1d1d1b;
        stroke-miterlimit: 10;
      }

      .cls-4 {
        fill: #fff;
      }

      .cls-4, .cls-5 {
        stroke-width: 0px;
      }

      .cls-5 {
        fill: #71c5e2;
      }

      .cls-2 {
        stroke-width: 8px;
      }

      .cls-3 {
        stroke-width: 7px;
      }
    </style>
  </defs>
  <g id="Camada_1-2" data-name="Camada 1">
    <g>
      <path class="cls-4" d="M270,535c-70.78,0-137.33-27.56-187.38-77.62S5,340.78,5,270s27.56-137.33,77.62-187.38S199.22,5,270,5s137.33,27.56,187.38,77.62,77.62,116.6,77.62,187.38-27.56,137.33-77.62,187.38-116.6,77.62-187.38,77.62Z"/>
      <path class="cls-5" d="M270,10c35.1,0,69.15,6.87,101.2,20.43,30.96,13.09,58.77,31.84,82.65,55.72,23.88,23.88,42.63,51.69,55.72,82.65,13.55,32.05,20.43,66.1,20.43,101.2s-6.87,69.15-20.43,101.2c-13.09,30.96-31.84,58.77-55.72,82.65-23.88,23.88-51.69,42.63-82.65,55.72-32.05,13.55-66.1,20.43-101.2,20.43s-69.15-6.87-101.2-20.43c-30.96-13.09-58.77-31.84-82.65-55.72-23.88-23.88-42.63-51.69-55.72-82.65-13.55-32.05-20.43-66.1-20.43-101.2s6.87-69.15,20.43-101.2c13.09-30.96,31.84-58.77,55.72-82.65s51.69-42.63,82.65-55.72c32.05-13.55,66.1-20.43,101.2-20.43M270,0C120.88,0,0,120.88,0,270s120.88,270,270,270,270-120.88,270-270S419.12,0,270,0h0Z"/>
    </g>
  </g>
  <g id="Camada_3" data-name="Camada 3">
    <g>
      <polygon class="cls-5" points="262.95 392.23 254.11 386.14 249.83 376.55 251 366.68 256.15 357.36 266.56 350.13 270.98 346.01 271.11 337.52 277.84 329.99 282.6 327.08 269.22 321.65 267.07 319.63 269.3 316.77 281.07 311.94 291.83 308.93 300.92 307.37 305.29 306.83 296.16 301.31 288.32 297.63 283.43 292.39 280.47 285.3 280.25 274.51 283.94 267.67 290.85 264.96 307.12 262.31 328.52 252.77 347.2 240.19 351.3 233.34 348.77 227.35 342.47 221.02 339.85 217.26 341.2 210.47 349.15 196.44 356.27 184.93 418.17 300.18 305.55 391.46 262.95 392.23"/>
      <path class="cls-5" d="M443.42,374.45c-57.69,95.81-182.12,126.72-277.93,69.04-61.07-36.77-95.77-100.66-97.96-166.97,10.11,35.08,33,66.58,66.74,86.9,70.97,42.73,163.14,19.84,205.88-51.14,42.73-70.97,19.83-163.15-51.14-205.88-33.75-20.32-72.3-25.8-108.05-18.32,59.64-29.11,132.35-28.33,193.43,8.44,95.81,57.69,126.72,182.13,69.03,277.93Z"/>
      <path class="cls-1" d="M353.65,189.01c-5.87,10.57-17.81,25.5-12.59,30.64s10.61,9.26,10.24,13.7c-.94,11.4-40.26,28.23-45.03,29.19-14.37,2.87-20.24,1.56-23.87,6.9-4.63,6.81-3.02,18.82,3.02,25.63,4.83,5.45,9.53,4.25,18.39,10.65,5.97,4.31,9.88,9.21,12.29,12.77"/>
      <path class="cls-1" d="M293.29,308.56c-21.79,5.47-26.4,8.9-26.22,11.07.21,2.64,7.48,2.93,16.43,7.93,8.73,4.88,14.37,11.61,17.87,16.79"/>
      <path class="cls-1" d="M277.84,329.99c-2.63,1.47-5.81,3.86-6.73,7.53-.74,2.96.63,4.23.34,6.76-.68,6-9.23,6.4-15.29,13.08-5.75,6.34-8.49,17.47-4.17,25.66,3,5.69,8.5,8.24,10.96,9.2"/>
      <path class="cls-2" d="M357.39,235.88c2.67,1.87,6.72,4.27,12.07,5.94,5.17,1.62,7.88.91,12.57,2,3.76.87,9.07,2.85,15.02,7.92"/>
      <path class="cls-3" d="M359.47,248.16c-4.17,7.79-1.64,17.31,5.18,21.63,5.88,3.72,13.96,2.98,19.53-2.05"/>
    </g>
  </g>
</svg>