<?xml version="1.0" encoding="UTF-8"?>
<svg id="Camada_2" data-name="Camada 2" xmlns="http://www.w3.org/2000/svg" viewBox="0 0 540 540">
  <defs>
    <style>
      .cls-1 {
        stroke-width: 6.65px;
      }

      .cls-1, .cls-2, .cls-3 {
        fill: none;
        stroke: #1d1d1b;
        stroke-miterlimit: 10;
      }

      .cls-4 {
        fill: #fff;
      }

      .cls-4, .cls-5, .cls-6 {
        stroke-width: 0px;
      }

      .cls-5 {
        fill: #71c5e2;
      }

      .cls-2 {
        stroke-width: 5.7px;
      }

      .cls-6 {
        fill: #1d1d1b;
      }

      .cls-3 {
        stroke-width: 7.6px;
      }
    </style>
  </defs>
  <g id="Camada_1-2" data-name="Camada 1">
    <g>
      <path class="cls-4" d="M270,530c-69.45,0-134.74-27.04-183.85-76.15S10,339.45,10,270s27.04-134.74,76.15-183.85S200.55,10,270,10s134.74,27.04,183.85,76.15,76.15,114.4,76.15,183.85-27.04,134.74-76.15,183.85-114.4,76.15-183.85,76.15Z"/>
      <path class="cls-6" d="M270,20c33.76,0,66.5,6.61,97.31,19.64,29.77,12.59,56.51,30.62,79.47,53.59,22.97,22.97,40.99,49.7,53.59,79.47,13.03,30.81,19.64,63.55,19.64,97.31s-6.61,66.5-19.64,97.31c-12.59,29.77-30.62,56.51-53.59,79.47-22.97,22.97-49.7,41-79.47,53.59-30.81,13.03-63.55,19.64-97.31,19.64s-66.5-6.61-97.31-19.64c-29.77-12.59-56.51-30.62-79.47-53.59-22.97-22.97-40.99-49.7-53.59-79.47-13.03-30.81-19.64-63.55-19.64-97.31s6.61-66.5,19.64-97.31c12.59-29.77,30.62-56.51,53.59-79.47,22.97-22.97,49.7-40.99,79.47-53.59,30.81-13.03,63.55-19.64,97.31-19.64M270,0C120.88,0,0,120.88,0,270s120.88,270,270,270,270-120.88,270-270S419.12,0,270,0h0Z"/>
    </g>
  </g>
  <g id="Camada_3" data-name="Camada 3">
    <g>
      <g>
        <g>
          <polygon class="cls-5" points="263.3 386.19 254.89 380.41 250.82 371.28 251.94 361.9 256.84 353.05 266.73 346.18 270.93 342.26 271.05 334.19 277.45 327.03 281.98 324.26 269.26 319.1 267.21 317.17 269.34 314.46 280.52 309.87 290.75 307.01 299.4 305.53 303.54 305.01 294.87 299.77 287.41 296.27 282.77 291.28 279.96 284.54 279.74 274.29 283.25 267.78 289.82 265.21 305.29 262.69 325.63 253.62 343.39 241.66 347.28 235.15 344.88 229.46 338.89 223.44 336.4 219.87 337.68 213.41 345.25 200.07 352.01 189.13 410.85 298.69 303.79 385.46 263.3 386.19"/>
          <path class="cls-5" d="M434.86,369.29c-54.84,91.08-173.12,120.46-264.21,65.63-58.06-34.95-91.04-95.69-93.12-158.73,9.61,33.35,31.37,63.29,63.45,82.61,67.46,40.62,155.08,18.86,195.71-48.61,40.62-67.46,18.85-155.09-48.61-195.71-32.09-19.32-68.73-24.53-102.72-17.41,56.69-27.67,125.81-26.94,183.88,8.02,91.08,54.84,120.46,173.13,65.63,264.21Z"/>
        </g>
        <path class="cls-2" d="M349.52,193.01c-5.58,10.05-16.93,24.24-11.97,29.12s10.09,8.81,9.74,13.02c-.89,10.84-38.27,26.84-42.8,27.75-13.66,2.73-19.24,1.48-22.69,6.56-4.4,6.47-2.87,17.89,2.87,24.37,4.59,5.18,9.06,4.04,17.48,10.12,5.67,4.09,9.39,8.75,11.69,12.14"/>
        <path class="cls-2" d="M292.14,306.65c-20.72,5.2-25.09,8.46-24.93,10.52.2,2.51,7.11,2.79,15.62,7.54,8.3,4.64,13.66,11.04,16.99,15.96"/>
        <path class="cls-2" d="M277.45,327.03c-2.5,1.4-5.52,3.67-6.4,7.16-.71,2.81.59,4.02.32,6.43-.64,5.7-8.77,6.08-14.54,12.44-5.46,6.02-8.07,16.6-3.96,24.4,2.85,5.41,8.08,7.84,10.42,8.75"/>
        <path class="cls-3" d="M353.07,237.57c2.54,1.78,6.39,4.06,11.47,5.65,4.91,1.54,7.49.87,11.95,1.9,3.57.83,8.63,2.71,14.28,7.53"/>
      </g>
      <path class="cls-1" d="M355.05,249.24c-3.97,7.41-1.56,16.45,4.92,20.56,5.59,3.54,13.27,2.83,18.56-1.95"/>
    </g>
  </g>
</svg>