<?xml version="1.0" encoding="UTF-8"?>
<svg id="Camada_2" data-name="Camada 2" xmlns="http://www.w3.org/2000/svg" viewBox="0 0 150 150">
  <defs>
    <style>
      .cls-1 {
        fill: #fff8f4;
      }

      .cls-1, .cls-2 {
        stroke-width: 0px;
      }

      .cls-2 {
        fill: #1d1d1b;
      }
    </style>
  </defs>
  <g id="Camada_3" data-name="Camada 3">
    <g>
      <circle class="cls-2" cx="75" cy="75" r="75"/>
      <g>
        <g>
          <g>
            <path class="cls-1" d="M75,90c-2.36,0-4.62-1.02-6.2-2.79l-9.18-10.35-29.05-32.76.23-.32c.43-.61.94-1.15,1.51-1.59l.37-.28,38.39,43.29c1,1.12,2.43,1.77,3.93,1.77s2.93-.64,3.93-1.77l9.34-10.54,1.36-1.53,27.69-31.24.37.29c.58.45,1.09.99,1.51,1.59l.22.32-38.22,43.11c-1.57,1.77-3.83,2.79-6.19,2.79Z"/>
            <path class="cls-1" d="M117.38,42.59c.54.42,1.02.92,1.4,1.48l-27.43,30.93-1.35,1.53-9.18,10.35c-1.48,1.66-3.59,2.62-5.82,2.62s-4.34-.95-5.83-2.62l-9.18-10.35-1.36-1.53-27.43-30.93c.39-.56.87-1.06,1.41-1.48l27.38,30.88,1.35,1.53,9.35,10.54c1.09,1.22,2.66,1.94,4.3,1.94s3.21-.71,4.3-1.94l9.34-10.54,1.36-1.53,27.38-30.88M117.26,41.22l-.62.7-27.38,30.88-1.36,1.53-9.34,10.54c-.9,1.02-2.2,1.6-3.56,1.6s-2.65-.58-3.56-1.6l-9.34-10.53-1.35-1.53-27.38-30.88-.62-.69-.74.56c-.62.47-1.16,1.04-1.62,1.7l-.45.65.52.59,27.43,30.93,1.36,1.53,9.17,10.35c1.67,1.88,4.07,2.96,6.57,2.96s4.9-1.08,6.57-2.96l9.18-10.35,1.35-1.53,27.43-30.93.52-.58-.44-.64c-.44-.65-.99-1.22-1.61-1.71l-.74-.57h0Z"/>
          </g>
          <g>
            <path class="cls-1" d="M89.63,76.86l-1.66-1.86,2.03-2.28,29.41,33.17-.22.32c-.42.61-.92,1.14-1.51,1.59l-.37.29-27.69-31.23ZM32.32,107.8c-.58-.44-1.08-.97-1.51-1.59l-.23-.32,29.42-33.18,2.02,2.28-29.33,33.08-.37-.28Z"/>
            <path class="cls-1" d="M90.01,73.47l1.35,1.53,27.43,30.93c-.39.56-.86,1.06-1.4,1.48l-27.38-30.88-1.36-1.53,1.36-1.53M60,73.47l1.35,1.53-1.35,1.53-27.38,30.88c-.54-.41-1.02-.91-1.41-1.48l27.43-30.93,1.36-1.53M90.01,71.96l-.75.84-1.36,1.53-.59.66.59.66,1.36,1.53,27.38,30.88.62.7.74-.57c.63-.48,1.17-1.06,1.61-1.71l.44-.64-.52-.58-27.43-30.93-1.35-1.53-.75-.84h0ZM60,71.96l-.75.84-1.36,1.53-27.43,30.93-.52.59.45.65c.46.66,1,1.23,1.62,1.7l.74.56.62-.69,27.38-30.88,1.35-1.53.59-.66-.59-.66-1.35-1.53-.75-.84h0Z"/>
          </g>
        </g>
        <path class="cls-1" d="M113.23,41.17c.74,0,1.45.12,2.11.34,2.19.72,3.89,2.53,4.45,4.78.14.53.2,1.08.2,1.64v54.14c0,.57-.07,1.12-.2,1.64-.56,2.25-2.26,4.07-4.45,4.78-.66.22-1.37.34-2.11.34H36.77c-.74,0-1.45-.12-2.12-.34-2.19-.72-3.89-2.53-4.45-4.79-.14-.53-.2-1.08-.2-1.64v-54.14c0-.56.07-1.11.2-1.64.55-2.26,2.25-4.07,4.45-4.79.66-.22,1.37-.34,2.12-.34h76.47M113.23,34.4H36.77c-1.43,0-2.85.23-4.22.67-4.39,1.44-7.8,5.1-8.91,9.58-.27,1.06-.41,2.17-.41,3.28v54.14c0,1.12.14,2.22.41,3.28,1.11,4.47,4.52,8.14,8.91,9.58,1.37.45,2.79.67,4.22.67h76.47c1.46,0,2.89-.23,4.24-.68,4.37-1.44,7.77-5.1,8.89-9.57.26-1.03.4-2.15.4-3.28v-54.14c0-1.13-.14-2.25-.42-3.33-1.1-4.42-4.51-8.08-8.88-9.52-1.36-.45-2.78-.68-4.24-.68h0Z"/>
      </g>
    </g>
  </g>
</svg>