<?xml version="1.0" encoding="UTF-8"?>
<svg id="Camada_2" data-name="Camada 2" xmlns="http://www.w3.org/2000/svg" viewBox="0 0 536.06 536.06">
  <defs>
    <style>
      .cls-1 {
        fill: #2c509f;
      }

      .cls-1, .cls-2, .cls-3 {
        stroke-width: 0px;
      }

      .cls-2 {
        fill: #1d1d1b;
      }

      .cls-3 {
        fill: #fff;
      }
    </style>
  </defs>
  <g id="Camada_1-2" data-name="Camada 1">
    <g>
      <g>
        <path class="cls-3" d="M433.42,526.06c-36.06,0-67.38-20.51-82.7-50.37-15.32,29.86-46.63,50.37-82.69,50.37s-67.34-20.51-82.65-50.37c-15.32,29.86-46.63,50.37-82.69,50.37-51.11,0-92.69-41.2-92.69-91.85v-.36l13.71-191.53C30.24,112.05,137.56,10,268.08,10c63.07,0,122.95,23.93,168.6,67.39,45.65,43.38,72.54,101.96,75.72,164.94l13.66,191.53v.36c0,50.65-41.56,91.85-92.64,91.85ZM352.36,178.82c-21.84,0-39.61,17.76-39.61,39.6s17.77,39.61,39.61,39.61,39.6-17.77,39.6-39.61-17.76-39.6-39.6-39.6ZM183.7,178.82c-21.84,0-39.61,17.76-39.61,39.6s17.77,39.61,39.61,39.61,39.6-17.77,39.6-39.61-17.76-39.6-39.6-39.6Z"/>
        <path class="cls-1" d="M268.08,20c62.5,0,119.55,24.5,161.71,64.63,42.17,40.08,69.5,95.83,72.63,158.3l13.64,191.28c0,45.19-37.01,81.85-82.64,81.85s-82.7-36.66-82.7-81.85c0,45.19-37,81.85-82.69,81.85s-82.65-36.66-82.65-81.85c0,45.19-37.05,81.85-82.69,81.85s-82.69-36.66-82.69-81.85l13.69-191.28C39.89,118.07,143.02,20,268.08,20M352.36,268.03c27.4,0,49.6-22.21,49.6-49.61s-22.2-49.6-49.6-49.6-49.61,22.2-49.61,49.6,22.21,49.61,49.61,49.61M183.7,268.03c27.39,0,49.6-22.21,49.6-49.61s-22.21-49.6-49.6-49.6-49.61,22.2-49.61,49.6,22.21,49.61,49.61,49.61M268.08,0c-65.64,0-127.99,24.91-175.55,70.15C45.01,115.34,17.03,176.26,13.73,241.71L.05,432.78l-.05.71v.71c0,56.16,46.07,101.85,102.69,101.85,33.88,0,63.97-16.35,82.69-41.52,18.71,25.17,48.79,41.52,82.65,41.52s63.98-16.36,82.69-41.52c18.72,25.17,48.82,41.52,82.7,41.52,56.6,0,102.64-45.69,102.64-101.85v-.71l-.05-.71-13.63-191.08c-3.34-65.51-31.32-126.44-78.82-171.58C396.06,24.91,333.73,0,268.08,0h0ZM352.36,248.03c-16.33,0-29.61-13.28-29.61-29.61s13.28-29.6,29.61-29.6,29.6,13.28,29.6,29.6-13.28,29.61-29.6,29.61h0ZM183.7,248.03c-16.33,0-29.61-13.28-29.61-29.61s13.28-29.6,29.61-29.6,29.6,13.28,29.6,29.6-13.28,29.61-29.6,29.61h0Z"/>
      </g>
      <path class="cls-2" d="M401.89,215.84c1.49,29.44-22.68,53.61-52.11,52.13-25.21-1.28-45.69-21.76-46.97-46.97-1.49-29.44,22.69-53.6,52.13-52.11,25.2,1.28,45.68,21.75,46.95,46.95Z"/>
      <path class="cls-2" d="M233.3,218.42c0,28.05-23.28,50.67-51.57,49.57-25.71-1-46.64-21.96-47.6-47.68-1.05-28.26,21.55-51.5,49.57-51.5s49.6,22.2,49.6,49.6Z"/>
    </g>
  </g>
</svg>