<?xml version="1.0" encoding="UTF-8"?>
<svg id="Camada_2" data-name="Camada 2" xmlns="http://www.w3.org/2000/svg" viewBox="0 0 536.06 536.05">
  <defs>
    <style>
      .cls-1 {
        fill: #1d1d1b;
      }

      .cls-1, .cls-2, .cls-3 {
        stroke-width: 0px;
      }

      .cls-2 {
        fill: #fbb917;
      }

      .cls-3 {
        fill: #fff;
      }
    </style>
  </defs>
  <g id="Camada_1-2" data-name="Camada 1">
    <g>
      <g>
        <path class="cls-1" d="M433.42,526.05c-36.06,0-67.38-20.51-82.7-50.37-15.32,29.86-46.63,50.37-82.69,50.37s-67.34-20.51-82.65-50.36c-15.32,29.86-46.63,50.36-82.69,50.36-51.11,0-92.69-41.2-92.69-91.84v-.36l13.71-191.53C30.24,112.05,137.56,10,268.08,10c63.07,0,122.95,23.93,168.6,67.39,45.65,43.38,72.54,101.96,75.72,164.94l13.66,191.53v.36c0,50.64-41.56,91.84-92.64,91.84ZM352.36,178.81c-21.84,0-39.61,17.77-39.61,39.61s17.77,39.6,39.61,39.6,39.6-17.76,39.6-39.6-17.76-39.61-39.6-39.61ZM183.7,178.81c-21.84,0-39.61,17.77-39.61,39.61s17.77,39.6,39.61,39.6,39.6-17.76,39.6-39.6-17.76-39.61-39.6-39.61Z"/>
        <path class="cls-2" d="M268.08,20c62.5,0,119.55,24.5,161.71,64.63,42.17,40.08,69.5,95.83,72.63,158.3l13.64,191.28c0,45.19-37.01,81.84-82.64,81.84s-82.7-36.65-82.7-81.84c0,45.19-37,81.84-82.69,81.84s-82.65-36.65-82.65-81.84c0,45.19-37.05,81.84-82.69,81.84s-82.69-36.65-82.69-81.84l13.69-191.28C39.89,118.06,143.02,20,268.08,20M352.36,268.02c27.4,0,49.6-22.21,49.6-49.6s-22.2-49.61-49.6-49.61-49.61,22.21-49.61,49.61,22.21,49.6,49.61,49.6M183.7,268.02c27.39,0,49.6-22.21,49.6-49.6s-22.21-49.61-49.6-49.61-49.61,22.21-49.61,49.61,22.21,49.6,49.61,49.6M268.08,0c-65.64,0-127.99,24.91-175.55,70.15C45.01,115.34,17.03,176.26,13.73,241.72L.05,432.78l-.05.71v.71c0,56.15,46.07,101.84,102.69,101.84,33.88,0,63.97-16.35,82.69-41.51,18.71,25.16,48.79,41.51,82.65,41.51,27.4,0,53.16-10.57,72.55-29.76,3.72-3.68,7.12-7.59,10.18-11.71,18.72,25.14,48.8,41.47,82.66,41.47,56.6,0,102.64-45.69,102.64-101.84v-.71l-.05-.71-13.63-191.08c-3.34-65.51-31.32-126.44-78.82-171.58C396.06,24.91,333.73,0,268.08,0h0ZM352.36,248.02c-16.33,0-29.61-13.28-29.61-29.6s13.28-29.61,29.61-29.61,29.6,13.28,29.6,29.61-13.28,29.6-29.6,29.6h0ZM183.7,248.02c-16.33,0-29.61-13.28-29.61-29.6s13.28-29.61,29.61-29.61,29.6,13.28,29.6,29.61-13.28,29.6-29.6,29.6h0Z"/>
      </g>
      <path class="cls-3" d="M401.96,218.42c0,27.39-22.2,49.6-49.6,49.6s-49.61-22.21-49.61-49.6,22.21-49.61,49.61-49.61,49.6,22.21,49.6,49.61Z"/>
      <path class="cls-3" d="M233.3,218.42c0,27.39-22.21,49.6-49.6,49.6s-49.61-22.21-49.61-49.6,22.21-49.61,49.61-49.61,49.6,22.21,49.6,49.61Z"/>
    </g>
  </g>
</svg>