<?xml version="1.0" encoding="UTF-8"?>
<svg id="Camada_2" data-name="Camada 2" xmlns="http://www.w3.org/2000/svg" viewBox="0 0 540 540">
  <defs>
    <style>
      .cls-1, .cls-2 {
        fill: none;
        stroke-width: 10px;
      }

      .cls-1, .cls-2, .cls-3 {
        stroke: #1d1d1b;
        stroke-miterlimit: 10;
      }

      .cls-1, .cls-3 {
        stroke-linecap: round;
      }

      .cls-4 {
        fill: #fef182;
      }

      .cls-4, .cls-5, .cls-6 {
        stroke-width: 0px;
      }

      .cls-5 {
        fill: #ffed00;
      }

      .cls-6, .cls-3 {
        fill: #1d1d1b;
      }

      .cls-3 {
        stroke-width: 5px;
      }
    </style>
  </defs>
  <g id="Camada_1-2" data-name="Camada 1">
    <g>
      <path class="cls-6" d="M270,535c-70.78,0-137.33-27.56-187.38-77.62S5,340.78,5,270s27.56-137.33,77.62-187.38C132.67,32.56,199.22,5,270,5s137.33,27.56,187.38,77.62,77.62,116.6,77.62,187.38-27.56,137.33-77.62,187.38-116.6,77.62-187.38,77.62Z"/>
      <path class="cls-4" d="M270,10c35.1,0,69.15,6.87,101.2,20.43,30.96,13.09,58.77,31.84,82.65,55.72s42.63,51.69,55.72,82.65c13.55,32.05,20.43,66.1,20.43,101.2s-6.87,69.15-20.43,101.2c-13.09,30.96-31.84,58.77-55.72,82.65-23.88,23.88-51.69,42.63-82.65,55.72-32.05,13.55-66.1,20.43-101.2,20.43s-69.15-6.87-101.2-20.43c-30.96-13.09-58.77-31.84-82.65-55.72-23.88-23.88-42.63-51.69-55.72-82.65-13.55-32.05-20.43-66.1-20.43-101.2s6.87-69.15,20.43-101.2c13.09-30.96,31.84-58.77,55.72-82.65,23.88-23.88,51.69-42.63,82.65-55.72,32.05-13.55,66.1-20.43,101.2-20.43M270,0C120.88,0,0,120.88,0,270s120.88,270,270,270,270-120.88,270-270S419.12,0,270,0h0Z"/>
    </g>
    <g>
      <circle class="cls-5" cx="270.13" cy="270" r="135"/>
      <polygon class="cls-5" points="164.07 163.93 136.51 191.49 126.42 153.85 116.34 116.2 153.98 126.29 191.62 136.38 164.07 163.93"/>
      <polygon class="cls-5" points="376.2 376.07 403.75 348.51 413.84 386.15 423.93 423.8 386.28 413.71 348.64 403.62 376.2 376.07"/>
      <polygon class="cls-5" points="164.07 376.07 191.62 403.62 153.98 413.71 116.34 423.8 126.42 386.15 136.51 348.51 164.07 376.07"/>
      <polygon class="cls-5" points="376.2 163.93 348.64 136.38 386.28 126.29 423.93 116.2 413.84 153.85 403.75 191.49 376.2 163.93"/>
      <path class="cls-5" d="M135.13,270h0c0,25.98-28.12,42.22-50.62,29.23h0s-50.62-29.23-50.62-29.23l50.63-29.23h0c22.5-12.99,50.62,3.25,50.62,29.23h0Z"/>
      <path class="cls-5" d="M270.13,135h0c-25.98,0-42.22-28.13-29.23-50.62h0s29.23-50.63,29.23-50.63l29.23,50.63h0c12.99,22.5-3.25,50.62-29.23,50.62h0Z"/>
      <path class="cls-5" d="M270.13,405h0c25.98,0,42.22,28.13,29.23,50.62h0s-29.23,50.63-29.23,50.63l-29.23-50.63h0c-12.99-22.5,3.25-50.62,29.23-50.62h0Z"/>
      <path class="cls-5" d="M404.87,270h0c0-25.98,28.13-42.22,50.62-29.23h0s50.62,29.23,50.62,29.23l-50.63,29.23h0c-22.5,12.99-50.62-3.25-50.62-29.23h0Z"/>
      <g>
        <path class="cls-2" d="M200.01,347s14.18-8.72,27.23-15.52c8.33-4.34,16.19-7.89,19.6-7.89,8.76,0,18.71,11.71,23.42,11.71s15.7-11.71,23.42-11.71,46.83,23.42,46.83,23.42"/>
        <path class="cls-3" d="M270.26,350.2h9.27c.24,0,.32.32.12.44l-4.31,2.49-4.68,2.7c-.24.14-.54.14-.78,0l-4.68-2.7-4.31-2.49c-.21-.12-.12-.44.12-.44h9.27Z"/>
        <path class="cls-1" d="M233,242.68c-6.43,6.43-14.26,10.6-22.52,12.51-5.3,1.23-10.77,1.52-16.16.88-10.08-1.2-19.83-5.66-27.56-13.39,6.43-6.43,14.27-10.61,22.54-12.51,3.48-.81,7.04-1.21,10.59-1.21,1.85,0,3.71.11,5.56.33,10.08,1.2,19.83,5.66,27.56,13.39Z"/>
        <path class="cls-6" d="M205.44,229.3c2.47,2.86,4.67,6.33,5.75,10.36,1.46,5.43.65,10.99-.71,15.54-5.3,1.23-10.77,1.52-16.16.88-2.47-2.86-4.67-6.33-5.75-10.36-1.46-5.43-.64-11,.73-15.54,3.48-.81,7.04-1.21,10.59-1.21,1.85,0,3.71.11,5.56.33Z"/>
        <path class="cls-2" d="M241.2,293.17h0c.01,2.94,3.62,5.09,7.38,4.42,2.06-.37,4.11-.8,5.45-1.24,5.52-1.82,11.95-.91,16.21,2.33l.02.02.03-.02c4.25-3.24,10.68-4.15,16.2-2.33,1.35.45,3.41.88,5.48,1.25,3.76.67,7.36-1.49,7.36-4.43h0"/>
        <path class="cls-1" d="M373.5,242.69c-7.73,7.73-17.48,12.19-27.56,13.39-5.39.64-10.85.35-16.16-.88-8.26-1.91-16.09-6.08-22.52-12.51,7.73-7.73,17.48-12.19,27.56-13.39,1.85-.22,3.71-.33,5.56-.33,3.55,0,7.11.4,10.59,1.21,8.27,1.9,16.1,6.07,22.54,12.51Z"/>
        <path class="cls-6" d="M345.94,256.07c-5.39.64-10.85.35-16.16-.88-1.36-4.55-2.17-10.1-.71-15.54,1.07-4.03,3.27-7.5,5.75-10.36,1.85-.22,3.71-.33,5.56-.33,3.55,0,7.11.4,10.59,1.21,1.37,4.54,2.19,10.1.73,15.54-1.07,4.03-3.27,7.5-5.75,10.36Z"/>
      </g>
      <path class="cls-2" d="M174.88,222.73c0-13.81,11.19-25,25-25s25,11.19,25,25"/>
      <path class="cls-2" d="M365.38,222.73c0-13.81-11.19-25-25-25s-25,11.19-25,25"/>
    </g>
  </g>
</svg>