<?xml version="1.0" encoding="UTF-8"?>
<svg id="Camada_2" data-name="Camada 2" xmlns="http://www.w3.org/2000/svg" viewBox="0 0 540 540">
  <defs>
    <style>
      .cls-1, .cls-2, .cls-3 {
        stroke: #ffed00;
        stroke-miterlimit: 10;
      }

      .cls-1, .cls-3 {
        fill: none;
        stroke-width: 9.58px;
      }

      .cls-4, .cls-5, .cls-6, .cls-7 {
        stroke-width: 0px;
      }

      .cls-4, .cls-2 {
        fill: #fef182;
      }

      .cls-5 {
        fill: #ffed00;
      }

      .cls-2 {
        stroke-width: 4.79px;
      }

      .cls-2, .cls-3 {
        stroke-linecap: round;
      }

      .cls-6 {
        fill: #fff;
      }

      .cls-7 {
        fill: #1d1d1b;
      }
    </style>
  </defs>
  <g id="Camada_3" data-name="Camada 3">
    <g>
      <path class="cls-4" d="M270,535c-70.79,0-137.33-27.56-187.38-77.62S5,340.79,5,270s27.56-137.33,77.62-187.38S199.21,5,270,5s137.33,27.56,187.38,77.62,77.62,116.6,77.62,187.38-27.56,137.33-77.62,187.38-116.6,77.62-187.38,77.62Z"/>
      <path class="cls-6" d="M270,10c35.1,0,69.15,6.87,101.2,20.43,30.96,13.09,58.77,31.84,82.65,55.72s42.63,51.69,55.72,82.65c13.55,32.05,20.43,66.1,20.43,101.2s-6.87,69.15-20.43,101.2c-13.09,30.96-31.84,58.77-55.72,82.65-23.88,23.88-51.69,42.63-82.65,55.72-32.05,13.55-66.1,20.43-101.2,20.43s-69.15-6.87-101.2-20.43c-30.96-13.09-58.77-31.84-82.65-55.72-23.88-23.88-42.63-51.69-55.72-82.65-13.55-32.05-20.43-66.1-20.43-101.2s6.87-69.15,20.43-101.2c13.09-30.96,31.84-58.77,55.72-82.65,23.88-23.88,51.69-42.63,82.65-55.72,32.05-13.55,66.1-20.43,101.2-20.43M270,0C120.88,0,0,120.88,0,270s120.88,270,270,270,270-120.88,270-270S419.12,0,270,0h0Z"/>
    </g>
    <g>
      <path class="cls-5" d="M270,530c-69.45,0-134.74-27.04-183.85-76.15-49.11-49.11-76.15-114.4-76.15-183.85s27.04-134.74,76.15-183.85C135.26,37.04,200.55,10,270,10s134.74,27.04,183.85,76.15c49.11,49.11,76.15,114.4,76.15,183.85s-27.04,134.74-76.15,183.85c-49.11,49.11-114.4,76.15-183.85,76.15Z"/>
      <path class="cls-6" d="M270,20c33.76,0,66.5,6.61,97.31,19.64,29.77,12.59,56.51,30.62,79.47,53.58,22.97,22.97,40.99,49.7,53.58,79.47,13.03,30.81,19.64,63.55,19.64,97.31s-6.61,66.5-19.64,97.31c-12.59,29.77-30.62,56.51-53.58,79.47-22.97,22.97-49.7,40.99-79.47,53.58-30.81,13.03-63.55,19.64-97.31,19.64s-66.5-6.61-97.31-19.64c-29.77-12.59-56.51-30.62-79.47-53.58-22.97-22.97-40.99-49.7-53.58-79.47-13.03-30.81-19.64-63.55-19.64-97.31s6.61-66.5,19.64-97.31c12.59-29.77,30.62-56.51,53.58-79.47,22.97-22.97,49.7-40.99,79.47-53.58,30.81-13.03,63.55-19.64,97.31-19.64M270,0C120.88,0,0,120.88,0,270s120.88,270,270,270,270-120.88,270-270S419.12,0,270,0h0Z"/>
    </g>
    <g>
      <circle class="cls-7" cx="270.13" cy="270" r="129.28"/>
      <g>
        <polygon class="cls-7" points="168.55 168.43 142.16 194.82 132.5 158.77 122.85 122.72 158.89 132.38 194.94 142.04 168.55 168.43"/>
        <polygon class="cls-7" points="371.7 371.57 398.09 345.18 407.75 381.23 417.41 417.28 381.36 407.62 345.31 397.96 371.7 371.57"/>
        <polygon class="cls-7" points="168.55 371.57 194.94 397.96 158.89 407.62 122.85 417.28 132.5 381.23 142.16 345.18 168.55 371.57"/>
        <polygon class="cls-7" points="371.7 168.43 345.31 142.04 381.36 132.38 417.41 122.72 407.75 158.77 398.09 194.82 371.7 168.43"/>
        <path class="cls-7" d="M140.84,270h0c0,24.88-26.93,40.43-48.48,27.99h0s-48.48-27.99-48.48-27.99l48.48-27.99h0c21.55-12.44,48.48,3.11,48.48,27.99h0Z"/>
        <path class="cls-7" d="M270.13,140.72h0c-24.88,0-40.43-26.93-27.99-48.48h0s27.99-48.48,27.99-48.48l27.99,48.48h0c12.44,21.55-3.11,48.48-27.99,48.48h0Z"/>
        <path class="cls-7" d="M270.13,399.28h0c24.88,0,40.43,26.93,27.99,48.48h0s-27.99,48.48-27.99,48.48l-27.99-48.48h0c-12.44-21.55,3.11-48.48,27.99-48.48h0Z"/>
        <path class="cls-7" d="M399.16,270h0c0-24.88,26.93-40.43,48.48-27.99h0s48.48,27.99,48.48,27.99l-48.48,27.99h0c-21.55,12.44-48.48-3.11-48.48-27.99h0Z"/>
      </g>
      <path class="cls-1" d="M202.98,343.74s13.58-8.35,26.08-14.86c7.97-4.16,15.5-7.56,18.77-7.56,8.39,0,17.92,11.21,22.42,11.21s15.03-11.21,22.42-11.21,44.85,22.42,44.85,22.42"/>
      <path class="cls-2" d="M270.25,346.81h8.87c.23,0,.31.3.11.42l-4.13,2.38-4.48,2.59c-.23.13-.52.13-.75,0l-4.48-2.59-4.13-2.38c-.2-.11-.12-.42.11-.42h8.87Z"/>
      <path class="cls-3" d="M234.57,243.84c-6.16,6.16-13.66,10.15-21.57,11.98-5.08,1.18-10.31,1.46-15.47.85-9.65-1.14-18.99-5.42-26.39-12.82,6.16-6.16,13.66-10.16,21.58-11.98,3.33-.77,6.74-1.16,10.14-1.16,1.77,0,3.56.1,5.32.31,9.65,1.14,18.99,5.42,26.39,12.82Z"/>
      <path class="cls-5" d="M208.18,231.02c2.37,2.74,4.48,6.06,5.51,9.92,1.39,5.2.62,10.52-.68,14.88-5.08,1.18-10.31,1.46-15.47.85-2.37-2.74-4.48-6.06-5.51-9.92-1.39-5.2-.62-10.53.7-14.88,3.33-.77,6.74-1.16,10.14-1.16,1.77,0,3.56.1,5.32.31Z"/>
      <path class="cls-1" d="M242.42,292.19h0c.01,2.82,3.47,4.88,7.07,4.24,1.97-.35,3.93-.76,5.22-1.19,5.29-1.75,11.44-.87,15.52,2.24l.02.02.03-.02c4.07-3.1,10.22-3.98,15.51-2.23,1.29.43,3.26.84,5.25,1.19,3.6.64,7.05-1.42,7.05-4.24h0"/>
      <path class="cls-3" d="M369.12,243.85c-7.4,7.4-16.74,11.67-26.39,12.82-5.16.61-10.39.33-15.47-.85-7.91-1.83-15.41-5.82-21.57-11.98,7.4-7.4,16.74-11.67,26.39-12.82,1.77-.21,3.55-.31,5.32-.31,3.4,0,6.81.39,10.14,1.16,7.92,1.82,15.42,5.82,21.58,11.98Z"/>
      <path class="cls-5" d="M342.73,256.66c-5.16.61-10.39.33-15.47-.85-1.31-4.35-2.08-9.68-.68-14.88,1.03-3.86,3.14-7.18,5.51-9.92,1.77-.21,3.55-.31,5.32-.31,3.4,0,6.81.39,10.14,1.16,1.31,4.35,2.09,9.68.7,14.88-1.03,3.86-3.14,7.18-5.51,9.92Z"/>
      <path class="cls-1" d="M178.91,224.73c0-13.22,10.72-23.94,23.94-23.94s23.94,10.72,23.94,23.94"/>
      <path class="cls-1" d="M361.34,224.73c0-13.22-10.72-23.94-23.94-23.94s-23.94,10.72-23.94,23.94"/>
    </g>
  </g>
</svg>