<?xml version="1.0" encoding="UTF-8"?>
<svg id="Camada_2" data-name="Camada 2" xmlns="http://www.w3.org/2000/svg" viewBox="0 0 562.16 262.16">
  <defs>
    <style>
      .cls-1 {
        fill: #fab816;
      }

      .cls-1, .cls-2, .cls-3 {
        stroke-width: 0px;
      }

      .cls-2 {
        fill: #fff8f4;
      }

      .cls-3 {
        fill: #1d1d1b;
      }
    </style>
  </defs>
  <g id="Camada_3" data-name="Camada 3">
    <g>
      <path class="cls-2" d="M562.16,65.87v130.43c0,36.32-29.54,65.86-65.86,65.86H65.87C29.55,262.16,0,232.62,0,196.3V65.87C0,29.55,29.55,0,65.87,0h430.43c36.32,0,65.86,29.55,65.86,65.87Z"/>
      <g>
        <rect class="cls-1" x="20.54" y="20.54" width="521.08" height="221.08" rx="45.33" ry="45.33"/>
        <path class="cls-3" d="M496.29,31.08c19.21,0,34.79,15.57,34.79,34.79v130.43c0,19.21-15.57,34.79-34.79,34.79H65.86c-19.21,0-34.78-15.57-34.78-34.79V65.87c0-19.21,15.57-34.79,34.78-34.79h430.43M496.29,10H65.86c-30.8,0-55.87,25.06-55.87,55.87v130.43c0,30.81,25.06,55.87,55.87,55.87h430.43c30.81,0,55.87-25.06,55.87-55.87V65.87c0-30.81-25.06-55.87-55.87-55.87h0Z"/>
      </g>
      <path class="cls-3" d="M481.08,131.08v47c0,18.22-14.78,33-33,33H114.08c-18.23,0-33-14.78-33-33v-47c0-11.05,8.95-20,20-20,5.52,0,10.52,2.24,14.14,5.86,3.62,3.61,5.86,8.61,5.86,14.14v40h320v-40c0-11.05,8.95-20,20-20,5.52,0,10.52,2.24,14.14,5.86,3.62,3.61,5.86,8.61,5.86,14.14Z"/>
    </g>
  </g>
</svg>