<?xml version="1.0" encoding="UTF-8"?>
<svg id="Camada_2" data-name="Camada 2" xmlns="http://www.w3.org/2000/svg" viewBox="0 0 150 150">
  <defs>
    <style>
      .cls-1 {
        fill: #fff8f4;
      }

      .cls-1, .cls-2 {
        stroke-width: 0px;
      }

      .cls-3 {
        fill: none;
        stroke: #1d1d1b;
        stroke-miterlimit: 10;
        stroke-width: 5px;
      }

      .cls-2 {
        fill: #1d1d1b;
      }
    </style>
  </defs>
  <g id="Camada_3" data-name="Camada 3">
    <g>
      <circle class="cls-1" cx="75" cy="75" r="75"/>
      <g>
        <path class="cls-2" d="M125.21,42.19c-.91-1.4-1.89-2.76-2.91-4.07-11-14.06-28.11-23.12-47.3-23.12s-36.31,9.06-47.3,23.12c-1.02,1.31-2,2.67-2.92,4.07-6.18,9.44-9.78,20.71-9.78,32.81s3.6,23.37,9.78,32.81c.92,1.4,1.9,2.76,2.92,4.07,10.99,14.06,28.11,23.12,47.3,23.12s36.3-9.06,47.3-23.12c1.02-1.31,2-2.67,2.91-4.07,6.19-9.44,9.79-20.71,9.79-32.81s-3.6-23.37-9.79-32.81ZM113,107.49c-9.17,10.72-22.79,17.51-38,17.51s-28.84-6.79-38.01-17.51c-1.12-1.31-2.17-2.67-3.14-4.09-5.59-8.06-8.85-17.85-8.85-28.4s3.26-20.34,8.85-28.4c.97-1.42,2.02-2.78,3.14-4.09,9.17-10.72,22.8-17.51,38.01-17.51s28.83,6.79,38,17.51c1.12,1.31,2.17,2.67,3.15,4.09,5.58,8.06,8.85,17.85,8.85,28.4s-3.27,20.34-8.85,28.4c-.98,1.42-2.03,2.78-3.15,4.09Z"/>
        <g>
          <line class="cls-3" x1="75" y1="20" x2="75" y2="130"/>
          <line class="cls-3" x1="20.22" y1="75" x2="129.78" y2="75"/>
          <path class="cls-2" d="M116.15,103.4c-12.64-5.41-26.55-8.4-41.15-8.4s-28.51,2.99-41.15,8.4c-3.11,1.33-6.13,2.8-9.07,4.41.92,1.4,1.9,2.76,2.92,4.07,3-1.62,6.11-3.09,9.29-4.39,11.72-4.83,24.55-7.49,38.01-7.49s26.28,2.66,38,7.49c3.19,1.29,6.29,2.76,9.3,4.39,1.02-1.31,2-2.67,2.91-4.07-2.94-1.62-5.96-3.09-9.06-4.41Z"/>
          <path class="cls-2" d="M122.3,38.12c-3.01,1.63-6.11,3.1-9.3,4.39-11.72,4.83-24.55,7.49-38,7.49s-26.29-2.66-38.01-7.49c-3.18-1.3-6.29-2.77-9.29-4.39-1.02,1.31-2,2.67-2.92,4.07,2.94,1.61,5.96,3.08,9.07,4.41,12.64,5.41,26.55,8.4,41.15,8.4s28.51-2.99,41.15-8.4c3.1-1.32,6.12-2.79,9.06-4.41-.91-1.4-1.89-2.76-2.91-4.07Z"/>
        </g>
        <path class="cls-2" d="M75,25c13.81,0,25,22.39,25,50s-11.19,50-25,50-25-22.39-25-50,11.19-50,25-50M75,21.46c-16,0-28.54,23.52-28.54,53.54s12.53,53.54,28.54,53.54,28.54-23.52,28.54-53.54-12.53-53.54-28.54-53.54h0Z"/>
      </g>
    </g>
  </g>
</svg>